<?xml version="1.0" standalone="no"?>
<!DOCTYPE svg PUBLIC "-//W3C//DTD SVG 20010904//EN"
 "http://www.w3.org/TR/2001/REC-SVG-20010904/DTD/svg10.dtd">
<svg version="1.0" xmlns="http://www.w3.org/2000/svg"
 width="343.000000pt" height="249.000000pt" viewBox="0 0 343.000000 249.000000"
 preserveAspectRatio="xMidYMid meet">

<g transform="translate(0.000000,249.000000) scale(0.100000,-0.100000)"
fill="#000000" stroke="none">
<path d="M575 2401 c-22 -10 -62 -42 -88 -71 -63 -70 -81 -132 -75 -254 11
-200 119 -415 314 -625 l54 -59 -25 -54 c-37 -82 -46 -145 -33 -230 23 -144
17 -212 -26 -323 -22 -55 -50 -113 -62 -128 -36 -43 -38 -84 -13 -290 l24
-192 114 -3 c63 -1 118 1 124 7 14 14 -28 99 -56 112 -20 9 -27 25 -41 88 -9
42 -14 84 -11 92 3 9 23 24 43 33 69 33 177 110 248 179 l72 67 32 -80 c28
-70 31 -86 25 -138 -5 -48 -3 -62 12 -80 10 -12 86 -73 168 -137 l150 -115
105 2 105 3 3 30 c5 47 -42 86 -110 93 -85 8 -170 90 -183 177 -5 32 5 72 48
200 52 156 54 160 83 162 16 2 121 -5 234 -15 l205 -17 -3 -175 c-2 -125 -7
-181 -17 -196 -7 -11 -43 -53 -79 -93 -75 -81 -75 -83 -23 -157 27 -38 36 -44
67 -44 51 0 75 27 67 78 -6 37 -5 39 71 104 l78 66 44 157 44 158 56 -114 c30
-63 94 -196 142 -297 l87 -182 114 0 c98 0 116 3 130 18 25 27 21 60 -12 93
-24 24 -38 29 -76 29 -46 0 -46 0 -69 53 -16 35 -34 119 -55 258 l-31 205 44
95 c24 52 83 193 129 314 135 349 121 327 219 345 42 8 60 17 87 47 36 41 61
90 61 123 0 13 -18 33 -49 55 -27 20 -59 51 -70 70 -24 41 -69 71 -128 86
l-43 11 0 49 c0 41 -3 49 -19 49 -10 0 -26 -11 -35 -25 -22 -33 -33 -32 -41 4
-3 16 -13 35 -21 42 -27 23 -90 -58 -118 -153 -23 -77 -237 -294 -341 -346
l-40 -20 -622 22 -622 22 -28 24 c-161 141 -264 285 -307 429 -33 114 -13 189
63 227 52 26 61 38 61 86 0 65 -70 88 -155 49z m113 -52 c3 -22 -4 -29 -45
-50 -113 -57 -123 -202 -27 -392 51 -102 150 -225 249 -311 l56 -48 642 -23
c582 -21 645 -21 672 -7 62 32 134 93 243 207 93 98 114 126 124 164 l12 46
15 -65 c12 -48 21 -66 35 -68 16 -3 18 1 12 30 -14 76 -18 148 -9 148 5 0 17
-15 25 -34 15 -31 21 -34 87 -44 86 -13 125 -34 165 -90 17 -23 48 -54 69 -68
44 -29 43 -45 -5 -106 -30 -38 -37 -42 -103 -53 -83 -14 -89 -23 -190 -285
-108 -280 -167 -420 -175 -415 -4 3 -11 29 -15 60 -3 30 -11 58 -17 61 -30 19
-28 -26 21 -339 45 -288 54 -332 79 -374 27 -46 31 -48 80 -53 53 -6 90 -29
78 -49 -10 -16 -181 -15 -193 1 -31 39 -334 700 -343 747 -5 29 -10 96 -10
147 0 89 -1 94 -21 94 -21 0 -22 -2 -17 -132 3 -73 10 -145 16 -160 9 -22 9
-28 -1 -28 -7 0 -145 11 -307 25 -519 44 -544 46 -580 40 -60 -11 -103 -41
-200 -140 -111 -113 -186 -174 -278 -224 -36 -20 -74 -48 -86 -64 -19 -25 -19
-31 -7 -90 8 -34 16 -72 18 -84 4 -18 0 -22 -23 -25 -18 -2 -30 -10 -32 -20
-3 -15 4 -18 50 -18 53 0 78 -12 78 -37 0 -10 -20 -13 -75 -13 -41 0 -75 3
-75 8 0 4 -9 79 -21 167 -23 177 -21 212 14 258 35 47 100 224 105 286 3 31
-3 94 -13 145 -21 106 -14 157 35 266 l29 65 -63 65 c-130 133 -228 285 -278
430 -29 84 -33 107 -33 200 0 99 2 108 31 160 55 97 194 159 202 89z m753
-1465 l66 -7 -54 -166 c-46 -138 -54 -173 -49 -210 8 -59 39 -108 104 -165 44
-38 59 -46 93 -46 42 0 99 -23 99 -40 0 -6 -34 -10 -79 -10 l-79 0 -153 118
-154 118 3 65 c3 56 -1 76 -32 152 -35 83 -36 88 -20 112 18 28 70 62 112 75
35 11 62 11 143 4z m787 -79 c11 -10 4 -43 -37 -186 -54 -189 -46 -174 -161
-272 -42 -35 -45 -42 -45 -85 0 -39 -3 -47 -20 -50 -20 -2 -65 53 -65 80 0 7
33 45 72 85 l73 73 9 191 9 190 76 -6 c42 -4 82 -13 89 -20z"/>
</g>
</svg>
