<?xml version="1.0" standalone="no"?>
<!DOCTYPE svg PUBLIC "-//W3C//DTD SVG 20010904//EN"
 "http://www.w3.org/TR/2001/REC-SVG-20010904/DTD/svg10.dtd">
<svg version="1.0" xmlns="http://www.w3.org/2000/svg"
 width="663.000000pt" height="596.000000pt" viewBox="0 0 663.000000 596.000000"
 preserveAspectRatio="xMidYMid meet">

<g transform="translate(0.000000,596.000000) scale(0.100000,-0.100000)"
fill="#000000" stroke="none">
<path d="M5832 5166 c-48 -81 -167 -120 -235 -77 -28 17 -50 21 -120 21 -78 0
-87 -2 -98 -21 -9 -18 -7 -32 16 -79 l28 -58 -22 -73 c-41 -134 -106 -219
-242 -314 -187 -133 -514 -195 -954 -182 -212 7 -270 13 -650 77 -323 54 -560
79 -800 86 -507 15 -780 -66 -1063 -318 -262 -232 -445 -553 -550 -963 -52
-200 -65 -324 -59 -535 7 -273 43 -429 134 -581 86 -146 228 -281 387 -371 86
-48 99 -70 104 -177 5 -110 1 -131 -40 -177 -53 -60 -123 -106 -303 -197 -205
-105 -477 -269 -688 -417 -211 -147 -597 -573 -597 -658 0 -17 41 4 138 70
111 75 464 234 772 348 58 22 166 62 240 90 123 47 206 77 505 185 98 35 490
143 835 231 96 24 254 58 350 74 269 46 835 102 1245 124 400 22 509 29 735
46 455 35 581 41 867 41 324 -1 303 -7 303 96 -1 71 -23 201 -42 239 -7 16
-31 39 -53 51 -40 22 -72 30 -289 80 -113 25 -119 28 -131 57 -21 51 -35 216
-42 476 -8 348 6 510 76 825 29 136 42 161 196 400 79 122 191 323 225 403 16
39 45 124 62 189 29 107 32 132 33 263 0 134 -2 152 -29 230 -36 109 -89 210
-145 280 -47 57 -59 97 -60 192 -1 60 -14 67 -39 24z m-2327 -2476 c142 -43
327 -76 490 -89 193 -16 482 -16 588 -1 53 7 93 8 98 3 5 -5 16 -58 24 -118
22 -161 30 -187 133 -420 22 -49 62 -127 90 -173 55 -93 81 -167 64 -184 -13
-13 -945 -12 -1147 2 -196 14 -225 19 -266 46 -27 19 -61 27 -150 38 -63 8
-177 22 -253 32 -172 21 -182 28 -172 115 11 97 82 278 192 486 35 67 73 146
84 175 23 62 72 118 104 118 11 0 66 -14 121 -30z"/>
</g>
</svg>
